<?xml version="1.0" encoding="utf-8"?>
<!-- Generator: Adobe Illustrator 17.0.0, SVG Export Plug-In . SVG Version: 6.00 Build 0)  -->
<!DOCTYPE svg PUBLIC "-//W3C//DTD SVG 1.1//EN" "http://www.w3.org/Graphics/SVG/1.1/DTD/svg11.dtd">
<svg version="1.1" id="Layer_1" xmlns="http://www.w3.org/2000/svg" xmlns:xlink="http://www.w3.org/1999/xlink" x="0px" y="0px"
	 width="253px" height="253px" viewBox="0 0 253 253" enable-background="new 0 0 253 253" xml:space="preserve">
<g>
	<circle fill="#074E68" cx="127.829" cy="126.636" r="126"/>
	<g opacity="0.5" enable-background="new    ">
		<g>
			<defs>
				<circle id="SVGID_1_" cx="127.431" cy="126.364" r="126"/>
			</defs>
			<clipPath id="SVGID_2_">
				<use xlink:href="#SVGID_1_"  overflow="visible"/>
			</clipPath>
			<g clip-path="url(#SVGID_2_)">
				<g>
					
						<line fill="none" stroke="#FFFFFF" stroke-width="0.5" stroke-miterlimit="10" x1="221.63" y1="344.944" x2="221.63" y2="-77.617"/>
					
						<line fill="none" stroke="#FFFFFF" stroke-width="0.5" stroke-miterlimit="10" x1="204.539" y1="344.944" x2="204.539" y2="-77.617"/>
					
						<line fill="none" stroke="#FFFFFF" stroke-width="0.5" stroke-miterlimit="10" x1="238.721" y1="344.518" x2="238.721" y2="-78.043"/>
					
						<line fill="none" stroke="#FFFFFF" stroke-width="0.5" stroke-miterlimit="10" x1="255.812" y1="344.944" x2="255.812" y2="-77.617"/>
					
						<line fill="none" stroke="#FFFFFF" stroke-width="0.5" stroke-miterlimit="10" x1="153.266" y1="344.944" x2="153.266" y2="-77.617"/>
					
						<line fill="none" stroke="#FFFFFF" stroke-width="0.5" stroke-miterlimit="10" x1="136.175" y1="344.944" x2="136.175" y2="-77.617"/>
					
						<line fill="none" stroke="#FFFFFF" stroke-width="0.5" stroke-miterlimit="10" x1="170.357" y1="344.518" x2="170.357" y2="-78.043"/>
					
						<line fill="none" stroke="#FFFFFF" stroke-width="0.5" stroke-miterlimit="10" x1="187.448" y1="344.944" x2="187.448" y2="-77.617"/>
					
						<line fill="none" stroke="#FFFFFF" stroke-width="0.5" stroke-miterlimit="10" x1="85.261" y1="345.156" x2="85.261" y2="-77.404"/>
					
						<line fill="none" stroke="#FFFFFF" stroke-width="0.5" stroke-miterlimit="10" x1="68.17" y1="345.156" x2="68.17" y2="-77.404"/>
					
						<line fill="none" stroke="#FFFFFF" stroke-width="0.5" stroke-miterlimit="10" x1="102.352" y1="344.731" x2="102.352" y2="-77.83"/>
					
						<line fill="none" stroke="#FFFFFF" stroke-width="0.5" stroke-miterlimit="10" x1="119.443" y1="345.156" x2="119.443" y2="-77.404"/>
					
						<line fill="none" stroke="#FFFFFF" stroke-width="0.5" stroke-miterlimit="10" x1="16.897" y1="345.156" x2="16.897" y2="-77.404"/>
					
						<line fill="none" stroke="#FFFFFF" stroke-width="0.5" stroke-miterlimit="10" x1="-0.194" y1="345.156" x2="-0.194" y2="-77.404"/>
					
						<line fill="none" stroke="#FFFFFF" stroke-width="0.5" stroke-miterlimit="10" x1="33.988" y1="344.731" x2="33.988" y2="-77.83"/>
					
						<line fill="none" stroke="#FFFFFF" stroke-width="0.5" stroke-miterlimit="10" x1="51.079" y1="345.156" x2="51.079" y2="-77.404"/>
				</g>
				<g>
					
						<line fill="none" stroke="#FFFFFF" stroke-width="0.5" stroke-miterlimit="10" x1="-75.212" y1="220.077" x2="347.349" y2="220.077"/>
					
						<line fill="none" stroke="#FFFFFF" stroke-width="0.5" stroke-miterlimit="10" x1="-75.212" y1="202.986" x2="347.349" y2="202.986"/>
					
						<line fill="none" stroke="#FFFFFF" stroke-width="0.5" stroke-miterlimit="10" x1="-74.786" y1="237.168" x2="347.775" y2="237.168"/>
					
						<line fill="none" stroke="#FFFFFF" stroke-width="0.5" stroke-miterlimit="10" x1="-75.212" y1="254.259" x2="347.349" y2="254.259"/>
					
						<line fill="none" stroke="#FFFFFF" stroke-width="0.5" stroke-miterlimit="10" x1="-75.212" y1="151.713" x2="347.349" y2="151.713"/>
					
						<line fill="none" stroke="#FFFFFF" stroke-width="0.5" stroke-miterlimit="10" x1="-75.212" y1="134.622" x2="347.349" y2="134.622"/>
					
						<line fill="none" stroke="#FFFFFF" stroke-width="0.5" stroke-miterlimit="10" x1="-74.786" y1="168.804" x2="347.775" y2="168.804"/>
					
						<line fill="none" stroke="#FFFFFF" stroke-width="0.5" stroke-miterlimit="10" x1="-75.212" y1="185.895" x2="347.349" y2="185.895"/>
					
						<line fill="none" stroke="#FFFFFF" stroke-width="0.5" stroke-miterlimit="10" x1="-75.425" y1="83.707" x2="347.136" y2="83.707"/>
					
						<line fill="none" stroke="#FFFFFF" stroke-width="0.5" stroke-miterlimit="10" x1="-75.425" y1="66.616" x2="347.136" y2="66.616"/>
					
						<line fill="none" stroke="#FFFFFF" stroke-width="0.5" stroke-miterlimit="10" x1="-74.999" y1="100.798" x2="347.562" y2="100.798"/>
					
						<line fill="none" stroke="#FFFFFF" stroke-width="0.5" stroke-miterlimit="10" x1="-75.425" y1="117.889" x2="347.136" y2="117.889"/>
					
						<line fill="none" stroke="#FFFFFF" stroke-width="0.5" stroke-miterlimit="10" x1="-75.425" y1="15.344" x2="347.136" y2="15.344"/>
					
						<line fill="none" stroke="#FFFFFF" stroke-width="0.5" stroke-miterlimit="10" x1="-75.425" y1="-1.747" x2="347.136" y2="-1.747"/>
					
						<line fill="none" stroke="#FFFFFF" stroke-width="0.5" stroke-miterlimit="10" x1="-74.999" y1="32.435" x2="347.562" y2="32.435"/>
					
						<line fill="none" stroke="#FFFFFF" stroke-width="0.5" stroke-miterlimit="10" x1="-75.425" y1="49.526" x2="347.136" y2="49.526"/>
				</g>
			</g>
		</g>
	</g>
</g>
<g>
	<line fill="none" stroke="#FFFFFF" stroke-miterlimit="10" x1="191.609" y1="187.388" x2="191.609" y2="71.016"/>
	<polygon fill="#FFFFFF" points="191.609,188.305 188.692,185.388 194.526,185.388 	"/>
	<polygon fill="#FFFFFF" points="191.609,68.099 194.526,71.016 188.692,71.016 	"/>
</g>
<g>
	<line fill="none" stroke="#FFFFFF" stroke-miterlimit="10" x1="149.815" y1="195.311" x2="173.29" y2="195.311"/>
	<polygon fill="#FFFFFF" points="148.811,195.311 151.728,192.394 151.728,198.228 	"/>
	<polygon fill="#FFFFFF" points="174.748,195.311 171.831,198.228 171.831,192.394 	"/>
</g>
<g>
	<line fill="none" stroke="#FFFFFF" stroke-miterlimit="10" x1="130.348" y1="57.291" x2="67.623" y2="57.291"/>
	<polygon fill="#FFFFFF" points="131.649,57.29 128.732,60.207 128.732,54.373 	"/>
	<polygon fill="#FFFFFF" points="66.037,57.29 68.955,54.373 68.955,60.207 	"/>
</g>
<rect x="118.192" y="67.164" fill="none" stroke="#FFFFFF" stroke-width="3" stroke-miterlimit="10" width="12.541" height="22.876"/>
<rect x="84.132" y="90.689" fill="none" stroke="#FFFFFF" stroke-width="3" stroke-miterlimit="10" width="18.335" height="96.699"/>
<rect x="69.623" y="71.67" fill="none" stroke="#FFFFFF" stroke-width="3" stroke-miterlimit="10" width="43.211" height="13.863"/>
<polygon fill="none" stroke="#FFFFFF" stroke-width="3" stroke-miterlimit="10" points="152.679,71.813 152.679,83.151 
	160.94,89.411 170.369,83.236 170.369,71.616 172.559,70.673 181.208,83.744 181.208,96.28 170.488,106 170.488,186.847 
	152.679,186.847 152.679,106.406 142.374,97.102 142.374,83.707 151.154,71.016 "/>
<circle fill="none" stroke="#FFFFFF" stroke-width="3" stroke-miterlimit="10" cx="161.802" cy="177.728" r="3.313"/>
</svg>
